<?xml version="1.0" standalone="no"?>
<!DOCTYPE svg PUBLIC "-//W3C//DTD SVG 20010904//EN"
 "http://www.w3.org/TR/2001/REC-SVG-20010904/DTD/svg10.dtd">
<svg version="1.0" xmlns="http://www.w3.org/2000/svg"
 width="512.000000pt" height="512.000000pt" viewBox="0 0 512.000000 512.000000"
 preserveAspectRatio="xMidYMid meet">
<metadata>
Created by potrace 1.11, written by Peter Selinger 2001-2013
</metadata>
<g transform="translate(0.000000,512.000000) scale(0.100000,-0.100000)"
fill="#000000" stroke="none">
<path d="M2520 5097 c-19 -14 -49 -49 -67 -78 -32 -55 -87 -205 -98 -269 -3
-19 -8 -42 -10 -50 -30 -102 -48 -473 -32 -645 32 -325 124 -540 230 -537 83
2 162 131 216 347 11 44 23 103 27 130 3 28 8 58 10 69 21 118 21 503 0 611
-2 11 -7 40 -11 65 -22 142 -82 294 -134 344 -40 39 -88 43 -131 13z"/>
<path d="M852 4737 c-73 -23 -79 -111 -16 -226 20 -36 39 -68 43 -71 3 -3 19
-22 35 -43 104 -141 391 -375 606 -496 248 -140 468 -201 562 -157 107 51 38
233 -167 439 -345 348 -861 617 -1063 554z"/>
<path d="M4095 4735 c-385 -84 -994 -551 -1095 -839 -22 -62 -18 -103 15 -136
24 -23 32 -25 113 -24 70 0 105 7 179 32 130 44 307 135 448 231 311 210 554
477 572 628 12 108 -66 145 -232 108z"/>
<path d="M1743 3534 c-294 -61 -505 -317 -504 -611 1 -275 179 -512 451 -600
63 -20 242 -25 310 -9 220 53 397 213 463 421 23 72 27 100 28 192 0 192 -91
374 -249 493 -65 48 -184 103 -253 115 -66 12 -185 11 -246 -1z"/>
<path d="M3188 3545 c-2 -2 -22 -5 -45 -8 -110 -16 -255 -92 -340 -179 -84
-86 -154 -218 -171 -322 -11 -71 -5 -208 13 -275 52 -198 218 -370 420 -434
100 -31 271 -31 370 0 192 61 346 212 413 406 21 60 25 91 25 187 1 102 -3
124 -29 200 -37 107 -86 181 -170 259 -70 66 -192 132 -279 151 -45 10 -200
21 -207 15z"/>
<path d="M1030 2768 c-212 -61 -363 -202 -438 -410 -23 -64 -26 -87 -26 -193
1 -92 6 -134 21 -182 31 -95 88 -186 157 -255 122 -122 254 -178 426 -183 115
-3 175 8 274 52 209 92 350 292 369 521 4 47 2 53 -17 56 -224 43 -332 91
-452 203 -98 90 -184 231 -215 351 -14 57 -24 61 -99 40z"/>
<path d="M4006 2768 c-51 -162 -84 -230 -155 -318 -123 -153 -301 -251 -503
-277 l-47 -6 5 -46 c15 -142 53 -242 127 -338 173 -223 466 -305 729 -204 183
70 334 245 382 441 21 86 15 232 -14 323 -61 196 -225 357 -418 412 -87 24
-102 26 -106 13z"/>
<path d="M2529 2542 c-66 -119 -187 -230 -324 -298 -69 -34 -206 -74 -252 -74
-23 0 -24 -2 -18 -56 16 -164 72 -283 190 -399 182 -182 483 -227 718 -108 57
28 151 98 180 133 100 120 146 224 162 371 l7 56 -72 12 c-113 18 -252 78
-337 144 -54 41 -153 153 -183 205 -19 34 -37 61 -40 62 -3 0 -17 -22 -31 -48z"/>
<path d="M1827 1762 c-109 -177 -318 -322 -500 -348 -21 -3 -46 -7 -55 -9 -9
-2 -22 -4 -29 -4 -7 -1 -11 -7 -8 -13 2 -7 6 -39 9 -71 22 -240 213 -456 466
-526 106 -30 256 -24 360 14 231 84 390 282 419 522 8 71 6 75 -49 80 -53 5
-137 31 -210 65 -146 67 -262 175 -355 333 -9 15 -16 9 -48 -43z"/>
<path d="M3210 1759 c-68 -120 -214 -245 -350 -299 -71 -29 -174 -56 -227 -59
-21 -2 -6 -126 27 -217 39 -112 133 -234 232 -302 344 -237 819 -79 953 316
28 84 42 202 23 203 -155 9 -350 101 -470 222 -52 52 -120 145 -134 181 -10
25 -17 19 -54 -45z"/>
<path d="M2545 1030 c-9 -29 -93 -139 -139 -184 -86 -83 -183 -141 -298 -180
-47 -15 -68 -20 -141 -32 l-38 -7 5 -51 c26 -257 191 -465 436 -546 85 -29
240 -35 330 -14 132 30 272 120 362 232 31 39 85 147 101 202 24 83 32 180 15
181 -104 6 -268 67 -373 139 -67 46 -167 153 -206 220 -19 33 -37 60 -41 60
-4 0 -9 -9 -13 -20z"/>
</g>
</svg>
