<svg xmlns="http://www.w3.org/2000/svg" viewBox="0 0 92.604 105.833" height="400" width="350"><g transform="matrix(2.44216 0 0 2.42468 -397.129 -156.662)" fill="green"><ellipse cx="-170.78" cy="-173.804" rx="1.469" ry="4.35" transform="matrix(-.24842 -.96865 -.83487 .55045 0 0)"/><ellipse transform="matrix(-.923 -.38482 -.06311 .998 0 0)" ry="4.35" rx="1.469" cy="-6.224" cx="-196.296"/><ellipse transform="matrix(.24842 -.96865 .83487 .55045 0 0)" ry="4.35" rx="1.469" cy="198.261" cx="40.64"/></g><path d="M37.1 21.648a8.316 8.257 0 00-8.313 8.257 8.316 8.257 0 008.316 8.256 8.316 8.257 0 008.316-8.256 8.316 8.257 0 00-8.316-8.257 8.316 8.257 0 00-.003 0zm18.345 0a8.316 8.257 0 00-8.313 8.257 8.316 8.257 0 008.315 8.256 8.316 8.257 0 008.317-8.256 8.316 8.257 0 00-8.317-8.257 8.316 8.257 0 00-.002 0zm-28.292 10.1a8.316 8.257 0 00-7.34 8.2 8.316 8.257 0 008.315 8.257 8.316 8.257 0 008.317-8.256 8.316 8.257 0 00-.001-.132 10.082 10.01 0 01-9.291-8.069zm38.298.072a10.082 10.01 0 01-9.29 8.069 8.316 8.257 0 00-.002.132 8.316 8.257 0 008.317 8.255 8.316 8.257 0 008.315-8.255 8.316 8.257 0 00-7.34-8.201zm-19.15 2.4a10.082 10.01 0 01-8.315 5.669 8.316 8.257 0 000 .094 8.316 8.257 0 008.316 8.256 8.316 8.257 0 008.317-8.256 8.316 8.257 0 00-.002-.094 10.082 10.01 0 01-8.315-5.669zm-9.198 10.17a10.082 10.01 0 01-8.316 5.67 8.316 8.257 0 000 .093 8.316 8.257 0 008.316 8.256 8.316 8.257 0 008.317-8.256 8.316 8.257 0 00-.002-.094 10.082 10.01 0 01-8.315-5.668zm18.344 0a10.082 10.01 0 01-8.315 5.67 8.316 8.257 0 00-.001.093 8.316 8.257 0 008.316 8.256 8.316 8.257 0 008.317-8.256 8.316 8.257 0 00-.002-.094 10.082 10.01 0 01-8.315-5.668zm-9.145 10.191a10.082 10.01 0 01-8.316 5.669 8.316 8.257 0 000 .094 8.316 8.257 0 008.316 8.256 8.316 8.257 0 008.317-8.256 8.316 8.257 0 00-.002-.094 10.082 10.01 0 01-8.315-5.669z" fill="red"/><g aria-label="Malina.js" style="line-height:1.25" font-weight="400" font-size="23.498" font-family="Ubuntu" fill="#f7022e" stroke-width=".587"><path d="M8.521 98.412q-.236-.56-.639-1.424-.378-.863-.828-1.867-.45-1.003-.97-2.054-.496-1.073-.946-2.007-.45-.957-.852-1.704-.378-.747-.615-1.143-.26 2.754-.426 5.975-.165 3.197-.283 6.465H.714q.095-2.1.213-4.225.118-2.147.26-4.201.166-2.077.331-4.038.19-1.96.403-3.71h2.01q.64 1.026 1.373 2.427.733 1.4 1.466 2.94.734 1.517 1.42 3.058l1.254 2.777 1.254-2.777q.686-1.54 1.42-3.058.732-1.54 1.466-2.94.733-1.4 1.372-2.428h2.01q.805 7.819 1.207 16.175h-2.247q-.118-3.268-.284-6.465-.166-3.221-.426-5.975-.236.396-.639 1.143-.378.747-.828 1.704-.45.934-.97 2.007-.496 1.05-.946 2.054-.45 1.004-.852 1.867-.378.864-.615 1.424zM25.791 99.089q.78 0 1.372-.023.615-.047 1.017-.14v-3.618q-.236-.117-.78-.187-.52-.093-1.278-.093-.497 0-1.064.07-.544.07-1.018.303-.45.21-.757.607-.307.373-.307 1.004 0 1.167.757 1.633.757.444 2.058.444zm-.19-10.876q1.326 0 2.225.35.922.326 1.466.957.568.606.805 1.47.236.84.236 1.867v7.586q-.284.046-.804.14-.497.07-1.136.14-.638.07-1.395.116-.734.07-1.467.07-1.041 0-1.916-.21-.876-.21-1.515-.653-.638-.467-.993-1.214-.355-.747-.355-1.797 0-1.004.402-1.727.426-.724 1.136-1.167.71-.444 1.656-.654.946-.21 1.987-.21.331 0 .686.047.355.023.662.093.332.047.568.094.237.046.331.07v-.607q0-.537-.118-1.05-.118-.537-.426-.934-.307-.42-.851-.654-.52-.256-1.372-.256-1.089 0-1.917.163-.804.14-1.206.304l-.26-1.798q.425-.186 1.419-.35.994-.186 2.153-.186zM37.667 100.886q-2.034-.047-2.886-.864-.852-.816-.852-2.544V82.914l2.2-.373v14.587q0 .537.095.887t.308.56q.212.21.567.327.355.094.876.164zM42.635 100.653h-2.2V88.516h2.2zm-1.112-14.33q-.591 0-1.017-.374-.402-.397-.402-1.05 0-.654.402-1.028.426-.396 1.017-.396.592 0 .994.396.426.374.426 1.027 0 .654-.426 1.05-.402.374-.994.374zM46.42 88.866q.757-.187 2.011-.397 1.254-.21 2.886-.21 1.467 0 2.437.42.97.397 1.538 1.144.591.724.828 1.75.236 1.027.236 2.264v6.816h-2.2v-6.349q0-1.12-.165-1.914-.142-.793-.497-1.283-.355-.49-.946-.7-.592-.234-1.467-.234-.355 0-.734.023-.378.024-.733.07-.331.024-.615.07-.26.047-.379.07v10.247h-2.2zM64.163 99.089q.781 0 1.373-.023.615-.047 1.017-.14v-3.618q-.237-.117-.78-.187-.521-.093-1.278-.093-.497 0-1.065.07-.544.07-1.017.303-.45.21-.757.607-.308.373-.308 1.004 0 1.167.757 1.633.757.444 2.058.444zm-.189-10.876q1.325 0 2.224.35.923.326 1.467.957.568.606.804 1.47.237.84.237 1.867v7.586q-.284.046-.805.14-.496.07-1.135.14t-1.396.116q-.733.07-1.467.07-1.04 0-1.916-.21-.875-.21-1.514-.653-.639-.467-.994-1.214-.355-.747-.355-1.797 0-1.004.403-1.727.425-.724 1.135-1.167.71-.444 1.656-.654.946-.21 1.987-.21.332 0 .686.047.355.023.663.093.331.047.568.094.236.046.33.07v-.607q0-.537-.117-1.05-.119-.537-.426-.934-.308-.42-.852-.654-.52-.256-1.372-.256-1.088 0-1.916.163-.805.14-1.207.304l-.26-1.798q.426-.186 1.42-.35.993-.186 2.152-.186zM74.951 99.392q0 .63-.426 1.097-.425.467-1.159.467-.733 0-1.159-.467-.426-.467-.426-1.097 0-.63.426-1.097.426-.466 1.16-.466.733 0 1.158.466.426.467.426 1.097zM76.158 105.017q-.284 0-.734-.07t-.757-.187l.284-1.773q.237.07.544.116.308.047.568.047 1.136 0 1.609-.7.497-.677.497-2.007V88.516h2.2v11.903q0 2.334-1.088 3.455-1.065 1.143-3.123 1.143zm3.099-18.695q-.592 0-1.017-.373-.403-.397-.403-1.05 0-.654.403-1.028.425-.396 1.017-.396.591 0 .993.396.426.374.426 1.027 0 .654-.426 1.05-.402.374-.993.374zM87.016 99.089q1.349 0 1.988-.35.662-.35.662-1.12 0-.794-.639-1.26-.638-.468-2.105-1.051-.71-.28-1.372-.56-.639-.304-1.112-.7-.473-.397-.757-.957-.284-.56-.284-1.377 0-1.61 1.206-2.544 1.207-.957 3.289-.957.52 0 1.04.07.521.046.97.14.45.07.781.163.355.093.545.163l-.403 1.868q-.355-.187-1.112-.374-.757-.21-1.821-.21-.923 0-1.609.374-.686.35-.686 1.12 0 .397.142.7.166.303.473.56.331.234.804.444.474.21 1.136.443.875.327 1.561.654.687.303 1.16.723.496.42.757 1.027.26.584.26 1.447 0 1.68-1.278 2.544-1.253.864-3.596.864-1.632 0-2.555-.28-.922-.257-1.253-.397l.402-1.867q.378.14 1.206.42.828.28 2.2.28z" style="-inkscape-font-specification:Ubuntu"/></g></svg>